<svg width="28"
     height="28"
     viewBox="0 0 28 28"
     fill="none"
     xmlns="http://www.w3.org/2000/svg">
    <path d="M14.0011 1H14C6.8203 1 1 6.8203 1 14C1 21.1797 6.8203 27 14 27C21.1797 27 27 21.1797 27 14V13.9989C26.9922 6.82303 21.177 1.00776 14.0011 1Z"
          fill="white" stroke="white" stroke-width="2"/>
    <path d="M14 2C7.37258 2 2 7.37258 2 14C2 20.6274 7.37258 26 14 26C20.6274 26 26 20.6274 26 14C25.9928 7.37555 20.6244 2.00716 14 2Z"
          fill="#0077C8"/>
    <path fill-rule="evenodd" clip-rule="evenodd"
          d="M13.4998 9C12.6716 9 11.9998 8.32828 11.9998 7.5C11.9998 6.67172 12.6716 6 13.4998 6C14.3281 6 14.9998 6.67172 14.9998 7.5C14.9998 8.32828 14.3281 9 13.4998 9ZM15.1699 19H16C16.5523 19 17 19.4478 17 20C17 20.5523 16.5523 21 16 21H15.1699C13.4982 21 12.6668 19.7349 12.6668 18V13H12C11.4477 13 11 12.5523 11 12C11 11.4478 11.4477 11 12 11H12.6668C13.7711 11 14.6668 11.8958 14.6668 13V18C14.6668 18.7632 14.8224 19 15.1699 19Z"
          fill="white"/>
</svg>
